<svg xmlns="http://www.w3.org/2000/svg" xmlns:xlink="http://www.w3.org/1999/xlink" width="108" height="108" viewBox="0 0 108 108">
  <defs>
    <filter id="Elipse_11495" x="0" y="0" width="108" height="108" filterUnits="userSpaceOnUse">
      <feOffset dy="3" input="SourceAlpha"/>
      <feGaussianBlur stdDeviation="3" result="blur"/>
      <feFlood flood-opacity="0.161"/>
      <feComposite operator="in" in2="blur"/>
      <feComposite in="SourceGraphic"/>
    </filter>
    <clipPath id="clip-path">
      <rect id="Rectángulo_405855" data-name="Rectángulo 405855" width="52.126" height="52.124" fill="none"/>
    </clipPath>
  </defs>
  <g id="Grupo_1150956" data-name="Grupo 1150956" transform="translate(-187 -1853)">
    <g transform="matrix(1, 0, 0, 1, 187, 1853)" filter="url(#Elipse_11495)">
      <g id="Elipse_11495-2" data-name="Elipse 11495" transform="translate(9 6)" fill="#f4fdfe" stroke="#9df0fd" stroke-width="2">
        <circle cx="45" cy="45" r="45" stroke="none"/>
        <circle cx="45" cy="45" r="44" fill="none"/>
      </g>
    </g>
    <g id="Grupo_1145593" data-name="Grupo 1145593" transform="translate(222 1877.938)">
      <g id="Grupo_1145592" data-name="Grupo 1145592" clip-path="url(#clip-path)">
        <path id="Trazado_979859" data-name="Trazado 979859" d="M38.277,17.41a1.088,1.088,0,0,1-.839-.535L37.355,2.5c-.251-.985-1.142-.749-1.928-.769-7.148-.184-14.327.138-21.477,0v8.7l-.146.872a3.689,3.689,0,0,1-3.366,2.64h-8.7V49.728c0,.225.663.78.962.666,10.9-.219,21.836.275,32.73,0,.786-.02,1.677.216,1.928-.769l.083-14.371a1.033,1.033,0,0,1,.839-.535.979.979,0,0,1,.816.863l0,14.253A2.658,2.658,0,0,1,36.7,52.124L1.957,52.05A2.682,2.682,0,0,1,0,49.732V13.69a2.662,2.662,0,0,1,.562-1.576L12.115.562A2.663,2.663,0,0,1,13.691,0L36.8,0a2.676,2.676,0,0,1,2.29,2.29l0,14.253a.983.983,0,0,1-.816.863M3.058,12.117h7.889a2.525,2.525,0,0,0,1.171-1.171V3.058Z" fill="#010101"/>
        <path id="Trazado_979860" data-name="Trazado 979860" d="M58.589,90.515c-.919.637-1.829,1.3-2.748,1.934-3.157,2.174-6.3,4.426-9.495,6.537a7.777,7.777,0,0,1-1.519.924c-2.977,1.005-6.559,1.375-9.6,2.309H26.171a.879.879,0,0,1,.105-1.722l6.966-.006a1.747,1.747,0,0,1,.365-1.111c1.479-2.73,3.987-5.436,5.591-8.151,5.6-3.84,11.155-7.75,16.744-11.6.922-.636,1.829-1.3,2.748-1.934,2.241-1.543,4.515-3.046,6.751-4.6a3.764,3.764,0,0,1,3.463.239A15.35,15.35,0,0,1,72.387,78.5a3.532,3.532,0,0,1-1.432,3.464q-6.2,4.255-12.365,8.553m7.838-15.879a.926.926,0,0,0-.4.157l-4.289,2.953c.933,1.43,1.884,2.86,2.875,4.25.23.323.6.7.8.986.146.213-.065.585.5.352,1.213-.994,2.77-1.768,3.966-2.752a1.72,1.72,0,0,0,.6-2.314A22.678,22.678,0,0,0,67.946,74.8a1.588,1.588,0,0,0-1.52-.16M59.3,79.522c-.147.1-1.075.567-1.108.622l0,.223c1.228,1.652,2.3,3.42,3.547,5.058.1.13.208.543.444.5.243-.31,2.033-1.258,1.986-1.551l-3.8-5.472c-.313-.248-.847.468-1.073.618m-3.562,2.443C50.8,85.214,46.005,88.7,41.127,92.041l0,.3c1.2,1.582,2.239,3.288,3.411,4.89.164.224.271.644.607.458L60.619,87.046,56.758,81.3c-.174-.1-.864.565-1.019.668m-16.8,12.723c-.412.589-.843,1.168-1.223,1.78l2,2.882c.685-.185,1.387-.319,2.075-.488a7.978,7.978,0,0,1,1.425-.306l-3.41-5.087c-.131,0-.742,1.044-.865,1.219m-2.29,3.361-1.63,2.439a19.773,19.773,0,0,0,2.8-.761Z" transform="translate(-20.312 -57.938)" fill="#030202"/>
        <path id="Trazado_979861" data-name="Trazado 979861" d="M176.591,24.14a10.664,10.664,0,0,0,.1,2.341c-.919.633-1.827,1.3-2.748,1.934l0-19.09-.208-.861c.786.02,1.677-.216,1.928.769l.083,14.371a1.087,1.087,0,0,0,.839.535" transform="translate(-138.314 -6.73)" fill="#ccd5d7"/>
        <path id="Trazado_979862" data-name="Trazado 979862" d="M176.591,161.9a1.032,1.032,0,0,0-.839.535l-.083,14.371c-.251.985-1.143.749-1.928.769l.208-.861c-.054-4.819.057-9.641,0-14.46,0-.172.065-.453-.1-.558.919-.633,1.829-1.3,2.748-1.934Z" transform="translate(-138.314 -127.184)" fill="#cfd7da"/>
        <path id="Trazado_979863" data-name="Trazado 979863" d="M15,24.056,24.056,15v7.888a2.525,2.525,0,0,1-1.171,1.171Z" transform="translate(-11.939 -11.939)" fill="#cdd6d9"/>
        <path id="Trazado_979864" data-name="Trazado 979864" d="M105.494,133.1c-1.172-1.6-2.209-3.307-3.411-4.89l0-.3c4.879-3.343,9.671-6.826,14.612-10.076l3.417,5.293Z" transform="translate(-81.264 -93.803)" fill="#f24234"/>
        <path id="Trazado_979865" data-name="Trazado 979865" d="M207.851,81.888c.727,1.324,2.637,3.058,2.547,4.628-.113,1.968-2.346,2.553-3.565,3.719-.2-.286-.565-.663-.8-.986-.991-1.39-1.941-2.82-2.875-4.25l4.289-2.953a.926.926,0,0,1,.4-.157" transform="translate(-161.736 -65.19)" fill="#e71e62"/>
        <path id="Trazado_979866" data-name="Trazado 979866" d="M130.026,115.18c.156-.1.846-.77,1.02-.668l3.861,5.749-15.471,10.645c-.336.186-.443-.235-.607-.458l14.614-9.975Z" transform="translate(-94.599 -91.154)" fill="#c51e1d"/>
        <path id="Trazado_979867" data-name="Trazado 979867" d="M222.182,81.426a1.589,1.589,0,0,1,1.52.16,22.694,22.694,0,0,1,2.534,3.472,1.72,1.72,0,0,1-.6,2.314c-1.2.984-2.753,1.758-3.966,2.752-.569.233-.358-.138-.5-.352,1.219-1.166,3.452-1.751,3.565-3.719.09-1.569-1.82-3.3-2.547-4.628" transform="translate(-176.067 -64.728)" fill="#aa1456"/>
        <path id="Trazado_979868" data-name="Trazado 979868" d="M193.655,109.137c.243-.171,1.088-.509,1-.842l-3.446-5.062c.226-.15.76-.866,1.073-.618l3.8,5.472c.046.293-1.743,1.241-1.986,1.551-.236.043-.344-.371-.443-.5" transform="translate(-152.222 -81.65)" fill="#f9be09"/>
        <path id="Trazado_979869" data-name="Trazado 979869" d="M89.449,184.4c-.688.17-1.39.3-2.075.488l-2-2.882c.38-.612.811-1.191,1.223-1.779.218,0,.278.127.391.27.659.834,1.441,2.046,2.033,2.954.19.293.479.571.426.949" transform="translate(-67.967 -143.477)" fill="#fbddae"/>
        <path id="Trazado_979870" data-name="Trazado 979870" d="M186.888,105.848l3.446,5.062c.085.333-.76.671-1,.842-1.246-1.638-2.318-3.406-3.547-5.058l0-.223c.032-.055.961-.525,1.108-.622" transform="translate(-147.898 -84.265)" fill="#fbd800"/>
        <path id="Trazado_979871" data-name="Trazado 979871" d="M91.374,175.466c.123-.175.734-1.224.865-1.219l3.41,5.087a7.983,7.983,0,0,0-1.425.306c.053-.377-.235-.656-.426-.948-.592-.909-1.374-2.121-2.033-2.954-.113-.144-.173-.273-.391-.271" transform="translate(-72.742 -138.716)" fill="#dac099"/>
        <path id="Trazado_979872" data-name="Trazado 979872" d="M73.779,196.71l1.169,1.678a19.773,19.773,0,0,1-2.8.761Z" transform="translate(-57.437 -156.599)" fill="#50585d"/>
        <path id="Trazado_979873" data-name="Trazado 979873" d="M26.072,85.4l27.361-.024c1.188.245.9,1.777-.3,1.736H26.556c-1.092.023-1.49-1.222-.483-1.712" transform="translate(-20.295 -67.965)" fill="#040404"/>
        <path id="Trazado_979874" data-name="Trazado 979874" d="M26.251,106.466l21.071.053c1.049.619.491,1.806-.632,1.759H26.63c-1.28.024-1.66-1.464-.379-1.812" transform="translate(-20.268 -84.757)" fill="#050505"/>
        <path id="Trazado_979875" data-name="Trazado 979875" d="M26.187,127.918l14.967.055a.89.89,0,0,1-.328,1.656H26.367a.866.866,0,0,1-.18-1.711" transform="translate(-20.308 -101.834)" fill="#010101"/>
        <path id="Trazado_979876" data-name="Trazado 979876" d="M144.959,208.852v-3.613a3.055,3.055,0,0,1,.309-.506.949.949,0,0,1,1.4.323l.027,4.87-.415.6-5.117.032a.95.95,0,0,1-.323-1.4,3.045,3.045,0,0,1,.506-.309Z" transform="translate(-111.974 -162.839)" fill="#040404"/>
        <path id="Trazado_979877" data-name="Trazado 979877" d="M128.359,21.517l7.509-.02a.889.889,0,0,1-.3,1.731c-2.153.257-4.812-.192-7.02-.008a.88.88,0,0,1-.188-1.7" transform="translate(-101.715 -17.114)" fill="#040404"/>
        <path id="Trazado_979878" data-name="Trazado 979878" d="M26.087,166.293l7-.015a.871.871,0,0,1-.2,1.725c-2.051.23-4.515-.167-6.61-.006a.883.883,0,0,1-.188-1.7" transform="translate(-20.311 -132.372)" fill="#030303"/>
        <path id="Trazado_979879" data-name="Trazado 979879" d="M141.255,38.564H146.1a.873.873,0,0,1-.188,1.7,29.285,29.285,0,0,1-4.55-.018.869.869,0,0,1-.1-1.685" transform="translate(-111.965 -30.7)" fill="#030303"/>
        <path id="Trazado_979880" data-name="Trazado 979880" d="M26.246,187.024a23.116,23.116,0,0,1,3.82,0,.911.911,0,0,1-.085,1.8,22.867,22.867,0,0,1-3.736-.018.9.9,0,0,1,0-1.784" transform="translate(-20.263 -148.825)" fill="#0b0b0b"/>
      </g>
    </g>
  </g>
</svg>
