<svg xmlns="http://www.w3.org/2000/svg" xmlns:xlink="http://www.w3.org/1999/xlink" width="108" height="108" viewBox="0 0 108 108">
  <defs>
    <filter id="Elipse_11495" x="0" y="0" width="108" height="108" filterUnits="userSpaceOnUse">
      <feOffset dy="3" input="SourceAlpha"/>
      <feGaussianBlur stdDeviation="3" result="blur"/>
      <feFlood flood-opacity="0.161"/>
      <feComposite operator="in" in2="blur"/>
      <feComposite in="SourceGraphic"/>
    </filter>
    <clipPath id="clip-path">
      <rect id="Rectángulo_405856" data-name="Rectángulo 405856" width="72.556" height="63.357" fill="none"/>
    </clipPath>
  </defs>
  <g id="Grupo_1150956" data-name="Grupo 1150956" transform="translate(-187 -1853)">
    <g transform="matrix(1, 0, 0, 1, 187, 1853)" filter="url(#Elipse_11495)">
      <g id="Elipse_11495-2" data-name="Elipse 11495" transform="translate(9 6)" fill="#f4fdfe" stroke="#9df0fd" stroke-width="2">
        <circle cx="45" cy="45" r="45" stroke="none"/>
        <circle cx="45" cy="45" r="44" fill="none"/>
      </g>
    </g>
    <g id="Grupo_1145596" data-name="Grupo 1145596" transform="translate(206.722 1868.252)">
      <path id="Trazado_979881" data-name="Trazado 979881" d="M0,0V.122L.121,0Z" transform="translate(0 0)" fill="#fefefe"/>
      <path id="Trazado_979882" data-name="Trazado 979882" d="M0,273.622H.121L0,273.5Z" transform="translate(0 -210.127)" fill="#fefefe"/>
      <path id="Trazado_979883" data-name="Trazado 979883" d="M311.5,273.622h.121V273.5Z" transform="translate(-239.301 -210.127)" fill="#fefefe"/>
      <g id="Grupo_1145595" data-name="Grupo 1145595" transform="translate(0 0.138)">
        <g id="Grupo_1145594" data-name="Grupo 1145594" clip-path="url(#clip-path)">
          <path id="Trazado_979884" data-name="Trazado 979884" d="M39.056,126.936a1.788,1.788,0,0,0,1.1.58c.5,0,2.088-.727,2.831-.873,2.986-.587,10.89-.564,13.8.21,10.822,2.876,12.627,17.777,2.83,23.231-3.385,1.885-6.37,1.552-10.1,1.706l-2.71,2.553c-.034-.753.18-1.827-.469-2.366-.576-.478-1.254-.215-1.9-.3-7.821-.973-13.124-8.154-11.086-15.932.213-.812.955-1.935.585-2.717a5.044,5.044,0,0,0-.437-.546,7.505,7.505,0,0,1,1.5-2.313c1.048.966,2.716-.643,1.736-1.735a7.971,7.971,0,0,1,2.315-1.5m.549,8.7c-4.236.668-3.5,7.426,1.117,6.9,4.43-.508,3.706-7.658-1.117-6.9m9.258,0c-4.236.668-3.5,7.426,1.117,6.9,4.43-.508,3.706-7.658-1.117-6.9m9.258,0c-4.236.668-3.5,7.426,1.117,6.9,4.43-.508,3.706-7.658-1.117-6.9" transform="translate(-25.284 -97.115)" fill="#fdfdfd"/>
          <path id="Trazado_979885" data-name="Trazado 979885" d="M31.361,96.941c-.563-1.056.533-1.661,1.328-1.969,4.324-1.67,9.654-.624,14.214-.92a15.214,15.214,0,0,1,12.286-6.714c7.941-.4,15.7-.49,20.525,6.792a14.994,14.994,0,0,1-11.32,23.164c-.158,1.255.7,4.818-1.557,4.389-.855-.163-3.544-3.567-4.463-4.213l-4.089-.163a15.5,15.5,0,0,1-10.12,6.546c-1.794.269-3.551.064-5.354.2l-4.59,4.319c-2.172.5-1.408-3.212-1.539-4.369a15.035,15.035,0,0,1-13.3-18.785c.257-1,.889-3.536,2.422-2.726a5.118,5.118,0,0,1,.437.546c.37.782-.372,1.9-.585,2.717-2.037,7.778,3.265,14.959,11.086,15.932.649.081,1.327-.182,1.9.3.649.538.435,1.613.469,2.366l2.71-2.553c3.727-.154,6.712.178,10.1-1.706,9.8-5.455,7.991-20.355-2.83-23.231-2.911-.774-10.815-.8-13.8-.21-.743.146-2.332.871-2.831.873a1.788,1.788,0,0,1-1.1-.58M59.483,115.1h3.761l2.718,2.544c.018-1.442-.269-2.446,1.462-2.645,2.524-.29,3.892-.369,6.168-1.7,9.782-5.721,7.553-20.671-3.462-23.235-2.589-.6-9.036-.472-11.868-.294-2.731.171-7.1,2.095-8.622,4.452a.49.49,0,0,0-.111.41c8.845,2.063,13.624,12.192,9.953,20.47" transform="translate(-17.589 -67.12)" fill="#030303"/>
          <path id="Trazado_979886" data-name="Trazado 979886" d="M74.225,58.324A12.084,12.084,0,0,1,82.5,60.391a11.086,11.086,0,0,1,1.7,1.536,1.2,1.2,0,0,1-1.192,1.779c-.434-.072-1.555-1.2-2.065-1.531a9.561,9.561,0,0,0-11.138.415c-.668.486-1.174,1.493-2.192.994-.843-.413-.779-1.28-.261-1.941,1.28-1.633,4.829-3.122,6.865-3.317" transform="translate(-51.45 -44.891)" fill="#030303"/>
          <path id="Trazado_979887" data-name="Trazado 979887" d="M167.172,29.435a12.035,12.035,0,0,1,7.861,2.021c.827.569,2.392,1.6,1.856,2.718-.82,1.711-2.336-.2-3.128-.752a9.545,9.545,0,0,0-10.631-.161c-.624.4-1.723,1.6-2.353,1.581a1.165,1.165,0,0,1-1.052-1.631,6.682,6.682,0,0,1,1.578-1.545,12.219,12.219,0,0,1,5.869-2.23" transform="translate(-122.639 -22.709)" fill="#030303"/>
          <path id="Trazado_979888" data-name="Trazado 979888" d="M184.887,54.074c-1.056,1.066-2.03-.477-3-.907a4.581,4.581,0,0,0-4.632.5c-.666.421-1.248,1.365-2.163.387-1.453-1.553,2.18-3.217,3.355-3.476a7.015,7.015,0,0,1,4.168.353c.979.381,3.5,1.905,2.277,3.138" transform="translate(-134.237 -38.865)" fill="#040404"/>
          <path id="Trazado_979889" data-name="Trazado 979889" d="M86.608,79.335a7.037,7.037,0,0,1,5.351,1.528c.623.551,1.134,1.128.559,1.95-.822,1.175-1.817-.062-2.489-.484a4.6,4.6,0,0,0-5.216.186c-.287.181-.552.58-.835.668a1.144,1.144,0,0,1-1.34-1.8,6.716,6.716,0,0,1,3.969-2.047" transform="translate(-63.256 -61.047)" fill="#030303"/>
          <path id="Trazado_979890" data-name="Trazado 979890" d="M42.487,134.56c.98,1.092-.688,2.7-1.736,1.735a2.356,2.356,0,0,1-.356-.87,1.227,1.227,0,0,1,2.092-.865" transform="translate(-31.029 -103.237)" fill="#070707"/>
          <path id="Trazado_979891" data-name="Trazado 979891" d="M52.5,166.628c4.823-.76,5.547,6.39,1.117,6.9-4.614.529-5.353-6.23-1.117-6.9m.344,2.309a1.163,1.163,0,0,0,.525,2.264,1.163,1.163,0,1,0-.525-2.264" transform="translate(-38.183 -128.107)" fill="#020303"/>
          <path id="Trazado_979892" data-name="Trazado 979892" d="M92.44,166.628c4.823-.76,5.547,6.39,1.117,6.9-4.614.529-5.353-6.23-1.117-6.9m.344,2.309a1.163,1.163,0,0,0,.525,2.264,1.163,1.163,0,1,0-.525-2.264" transform="translate(-68.861 -128.107)" fill="#020303"/>
          <path id="Trazado_979893" data-name="Trazado 979893" d="M132.376,166.628c4.823-.76,5.547,6.39,1.117,6.9-4.614.529-5.353-6.23-1.117-6.9m.344,2.309a1.163,1.163,0,0,0,.525,2.264,1.163,1.163,0,1,0-.525-2.264" transform="translate(-99.538 -128.107)" fill="#020303"/>
          <path id="Trazado_979894" data-name="Trazado 979894" d="M147.7,123.135c3.671-8.278-1.108-18.407-9.953-20.47a.49.49,0,0,1,.111-.41c1.518-2.357,5.891-4.281,8.622-4.452,2.833-.177,9.279-.308,11.868.295,11.015,2.565,13.245,17.514,3.462,23.235-2.276,1.331-3.643,1.411-6.168,1.7-1.731.2-1.445,1.2-1.462,2.645l-2.718-2.544Z" transform="translate(-105.804 -75.158)" fill="#fdcc68"/>
          <path id="Trazado_979895" data-name="Trazado 979895" d="M60.441,176.653a1.162,1.162,0,1,1,.525,2.264,1.162,1.162,0,0,1-.525-2.264" transform="translate(-45.776 -135.822)" fill="#32d0ee"/>
          <path id="Trazado_979896" data-name="Trazado 979896" d="M100.377,176.653a1.162,1.162,0,1,1,.525,2.264,1.162,1.162,0,0,1-.525-2.264" transform="translate(-76.454 -135.822)" fill="#32d0ee"/>
          <path id="Trazado_979897" data-name="Trazado 979897" d="M140.313,176.653a1.162,1.162,0,1,1,.525,2.264,1.162,1.162,0,0,1-.525-2.264" transform="translate(-107.131 -135.822)" fill="#32d0ee"/>
        </g>
      </g>
    </g>
  </g>
</svg>
