<svg xmlns="http://www.w3.org/2000/svg" xmlns:xlink="http://www.w3.org/1999/xlink" width="108" height="108" viewBox="0 0 108 108">
  <defs>
    <filter id="Trazado_982419" x="0" y="0" width="108" height="108" filterUnits="userSpaceOnUse">
      <feOffset dy="3" input="SourceAlpha"/>
      <feGaussianBlur stdDeviation="3" result="blur"/>
      <feFlood flood-opacity="0.161"/>
      <feComposite operator="in" in2="blur"/>
      <feComposite in="SourceGraphic"/>
    </filter>
  </defs>
  <g id="Grupo_1150913" data-name="Grupo 1150913" transform="translate(9 6)">
    <g id="Grupo_1149913" data-name="Grupo 1149913">
      <g id="Grupo_1148745" data-name="Grupo 1148745">
        <g transform="matrix(1, 0, 0, 1, -9, -6)" filter="url(#Trazado_982419)">
          <g id="Trazado_982419-2" data-name="Trazado 982419" transform="translate(9 6)" fill="#ebfdfe">
            <path d="M 45 88.5 C 39.12687683105469 88.5 33.43022537231445 87.35007476806641 28.06830024719238 85.08217620849609 C 22.88852500915527 82.89131164550781 18.23629951477051 79.75458526611328 14.2408504486084 75.75914764404297 C 10.24541282653809 71.76370239257812 7.108687400817871 67.11147308349609 4.917825222015381 61.93170166015625 C 2.649924993515015 56.56977462768555 1.5 50.87312316894531 1.5 45 C 1.5 39.12687683105469 2.649924993515015 33.43022537231445 4.917825222015381 28.06830024719238 C 7.108687400817871 22.88852500915527 10.24541282653809 18.23629951477051 14.2408504486084 14.2408504486084 C 18.23629951477051 10.24541282653809 22.88852500915527 7.108687400817871 28.06830024719238 4.917825222015381 C 33.43022537231445 2.649924993515015 39.12687683105469 1.5 45 1.5 C 50.87312316894531 1.5 56.56977462768555 2.649924993515015 61.93170166015625 4.917825222015381 C 67.11147308349609 7.108687400817871 71.76370239257812 10.24541282653809 75.75914764404297 14.2408504486084 C 79.75458526611328 18.23629951477051 82.89131164550781 22.88852500915527 85.08217620849609 28.06830024719238 C 87.35007476806641 33.43022537231445 88.5 39.12687683105469 88.5 45 C 88.5 50.87312316894531 87.35007476806641 56.56977462768555 85.08217620849609 61.93170166015625 C 82.89131164550781 67.11147308349609 79.75458526611328 71.76370239257812 75.75914764404297 75.75914764404297 C 71.76370239257812 79.75458526611328 67.11147308349609 82.89131164550781 61.93170166015625 85.08217620849609 C 56.56977462768555 87.35007476806641 50.87312316894531 88.5 45 88.5 Z" stroke="none"/>
            <path d="M 45 3 C 39.32871246337891 3 33.82865524291992 4.110054016113281 28.65262985229492 6.299339294433594 C 23.65165710449219 8.414573669433594 19.15968322753906 11.44334411621094 15.301513671875 15.301513671875 C 11.44334411621094 19.15968322753906 8.414573669433594 23.65165710449219 6.299339294433594 28.65262985229492 C 4.110054016113281 33.82865524291992 3 39.32871246337891 3 45 C 3 50.67128753662109 4.110054016113281 56.17134475708008 6.299339294433594 61.34737396240234 C 8.414573669433594 66.34834289550781 11.44334411621094 70.84031677246094 15.301513671875 74.698486328125 C 19.15968322753906 78.55665588378906 23.65165710449219 81.58542633056641 28.65262985229492 83.70066070556641 C 33.82865524291992 85.88994598388672 39.32871246337891 87 45 87 C 50.67128753662109 87 56.17134475708008 85.88994598388672 61.34737396240234 83.70066070556641 C 66.34834289550781 81.58542633056641 70.84031677246094 78.55665588378906 74.698486328125 74.698486328125 C 78.55665588378906 70.84031677246094 81.58542633056641 66.34834289550781 83.70066070556641 61.34737396240234 C 85.88994598388672 56.17134475708008 87 50.67128753662109 87 45 C 87 39.32871246337891 85.88994598388672 33.82865524291992 83.70066070556641 28.65262985229492 C 81.58542633056641 23.65165710449219 78.55665588378906 19.15968322753906 74.698486328125 15.301513671875 C 70.84031677246094 11.44334411621094 66.34834289550781 8.414573669433594 61.34737396240234 6.299339294433594 C 56.17134475708008 4.110054016113281 50.67128753662109 3 45 3 M 45 0 C 69.85281372070312 0 90 20.14718627929688 90 45 C 90 69.85281372070312 69.85281372070312 90 45 90 C 20.14718627929688 90 0 69.85281372070312 0 45 C 0 20.14718627929688 20.14718627929688 0 45 0 Z" stroke="none" fill="#9df0fd"/>
          </g>
        </g>
      </g>
    </g>
    <g id="bombilla" transform="translate(15.627 19.479)">
      <path id="Trazado_988815" data-name="Trazado 988815" d="M121.715,27.493A19.985,19.985,0,1,0,94.849,46.261v6.61a4.138,4.138,0,0,0,4.138,4.138h5.487a4.138,4.138,0,0,0,4.138-4.138v-6.61a19.993,19.993,0,0,0,13.1-18.768Zm0,0" transform="translate(-72.357 -6.646)" fill="#ffe469"/>
      <path id="Trazado_988816" data-name="Trazado 988816" d="M238.043,7.508a20.117,20.117,0,0,0-2.3.132,19.988,19.988,0,0,1,4.584,38.621v6.61a4.138,4.138,0,0,1-4.138,4.138h4.594a4.138,4.138,0,0,0,4.138-4.138v-6.61a19.988,19.988,0,0,0-6.881-38.753Zm0,0" transform="translate(-208.67 -6.646)" fill="#ffda30"/>
      <path id="Trazado_988817" data-name="Trazado 988817" d="M145.079,188.485a10.622,10.622,0,0,0,6.61,2.616.615.615,0,0,0,.654-.654,8.948,8.948,0,0,0-9.226-9.226.615.615,0,0,0-.654.654A10.623,10.623,0,0,0,145.079,188.485Zm0,0" transform="translate(-126.099 -160.405)" fill="#09a66d"/>
      <path id="Trazado_988818" data-name="Trazado 988818" d="M152.35,190.443a8.949,8.949,0,0,0-9.226-9.226.615.615,0,0,0-.655.59,8.609,8.609,0,0,1,3.474,2.027,10.622,10.622,0,0,1,2.617,6.61.622.622,0,0,1,0,.065,13.223,13.223,0,0,0,3.136.59A.615.615,0,0,0,152.35,190.443Zm0,0" transform="translate(-126.105 -160.402)" fill="#028f5d"/>
      <path id="Trazado_988819" data-name="Trazado 988819" d="M290.246,188.485a10.619,10.619,0,0,1-6.607,2.616.618.618,0,0,1-.657-.658,8.947,8.947,0,0,1,9.222-9.222.618.618,0,0,1,.657.658A10.62,10.62,0,0,1,290.246,188.485Zm0,0" transform="translate(-250.479 -160.406)" fill="#09a66d"/>
      <path id="Trazado_988820" data-name="Trazado 988820" d="M292.2,181.22a12.95,12.95,0,0,0-3.642.768A10.243,10.243,0,0,1,286,188.024a8.321,8.321,0,0,1-2.965,1.848c-.023.212-.039.4-.05.569a.618.618,0,0,0,.657.658,8.946,8.946,0,0,0,9.222-9.222.618.618,0,0,0-.657-.658Zm0,0" transform="translate(-250.479 -160.405)" fill="#028f5d"/>
      <path id="Trazado_988821" data-name="Trazado 988821" d="M233.706,87.019c0,2.979-1.941,5.524-2.84,6.542a.6.6,0,0,1-.893,0c-.9-1.018-2.84-3.564-2.84-6.542s1.941-5.523,2.84-6.542a.6.6,0,0,1,.893,0C231.764,81.5,233.706,84.041,233.706,87.019Zm0,0" transform="translate(-201.045 -71.056)" fill="#09a66d"/>
      <path id="Trazado_988822" data-name="Trazado 988822" d="M241.592,80.478a.6.6,0,0,0-.893,0,13.458,13.458,0,0,0-1.448,1.987,8.151,8.151,0,0,1,0,9.111,13.482,13.482,0,0,0,1.448,1.987.6.6,0,0,0,.893,0c.9-1.018,2.84-3.564,2.84-6.542s-1.941-5.523-2.84-6.542Zm0,0" transform="translate(-211.771 -71.056)" fill="#028f5d"/>
      <path id="Trazado_988823" data-name="Trazado 988823" d="M205.457,388.87H199.97a4.138,4.138,0,0,1-4.138-4.138V378a4.138,4.138,0,0,1,4.138-4.138h5.487A4.138,4.138,0,0,1,209.594,378v6.727A4.138,4.138,0,0,1,205.457,388.87Zm0,0" transform="translate(-173.34 -330.927)" fill="#f0f0f0"/>
      <path id="Trazado_988824" data-name="Trazado 988824" d="M240.683,373.867h-5.054A4.138,4.138,0,0,1,239.767,378v6.727a4.138,4.138,0,0,1-4.138,4.138h5.054a4.138,4.138,0,0,0,4.138-4.138V378A4.138,4.138,0,0,0,240.683,373.867Zm0,0" transform="translate(-208.566 -330.927)" fill="#e8e8e8"/>
      <g id="Grupo_1150814" data-name="Grupo 1150814" transform="translate(19.634 42.161)">
        <path id="Trazado_988825" data-name="Trazado 988825" d="M189.5,370.949,173,371.928a1.937,1.937,0,0,1-.229-3.867l16.508-.978a1.937,1.937,0,0,1,.229,3.867Zm0,0" transform="translate(-170.945 -367.079)" fill="#9e9e9e"/>
        <path id="Trazado_988826" data-name="Trazado 988826" d="M189.5,438.781,173,439.759a1.937,1.937,0,1,1-.229-3.866l16.508-.979a1.937,1.937,0,1,1,.229,3.866Zm0,0" transform="translate(-170.945 -427.12)" fill="#9e9e9e"/>
        <path id="Trazado_988827" data-name="Trazado 988827" d="M189.5,438.781,173,439.759a1.937,1.937,0,1,1-.229-3.866l16.508-.979a1.937,1.937,0,1,1,.229,3.866Zm0,0" transform="translate(-170.945 -427.12)" fill="#9e9e9e"/>
      </g>
      <path id="Trazado_988828" data-name="Trazado 988828" d="M112.091,32.911A20.854,20.854,0,0,0,86.941,1.652a.862.862,0,0,0,.674,1.586,19.129,19.129,0,1,1,14.058,35.569.861.861,0,0,0-.564.809v1.839l-5.158.306V33.988l2.585-2.413c1.188-.035,5.021-.351,7.556-2.886,2.966-2.967,2.894-7.714,2.89-7.915a.862.862,0,0,0-.842-.842c-.2,0-4.948-.077-7.915,2.89-2.5,2.5-2.843,6.275-2.885,7.512l-1.389,1.3v-8.3a14.107,14.107,0,0,0,2.029-2.82.862.862,0,0,0-1.514-.821A12.343,12.343,0,0,1,95.174,21.6c-.028,0-.057,0-.086,0s-.057,0-.085,0a9.508,9.508,0,0,1-2.34-5.635,9.609,9.609,0,0,1,2.426-5.739,9.562,9.562,0,0,1,2.424,5.739c0,.2-.01.4-.03.607a.862.862,0,0,0,1.715.169c.026-.259.038-.52.038-.776,0-4.2-3.407-7.5-3.553-7.64a.862.862,0,0,0-1.19,0c-.145.139-3.553,3.444-3.553,7.64,0,3.563,2.457,6.483,3.287,7.368v8.3l-1.391-1.3c-.044-1.247-.388-5.005-2.885-7.5-2.967-2.967-7.715-2.9-7.915-2.89a.861.861,0,0,0-.842.842c0,.2-.077,4.948,2.89,7.915,2.543,2.543,6.391,2.853,7.566,2.887l2.576,2.413v7.874l-5.159.306V39.615a.861.861,0,0,0-.565-.808A19.141,19.141,0,0,1,78.059,12.134a19.306,19.306,0,0,1,5.6-6.622.862.862,0,0,0-1.031-1.38,21.041,21.041,0,0,0-6.1,7.216A20.859,20.859,0,0,0,87.346,40.208V42.27c-3.665.079-3.718,5.688,0,5.6V50.06c-3.814.125-3.508,5.858.353,5.585a5.005,5.005,0,0,0,4.647,3.16h5.487a5.007,5.007,0,0,0,4.908-4.051l1.22-.072c3.583-.213,3.294-5.8-.331-5.587l-.8.047V47.079c0-.04,0-.08,0-.12l1.132-.067c3.579-.212,3.3-5.8-.331-5.587l-.8.047V40.208a20.792,20.792,0,0,0,9.261-7.3ZM101.443,24.04a9.606,9.606,0,0,1,5.774-2.342,9.568,9.568,0,0,1-2.344,5.772A9.607,9.607,0,0,1,99.1,29.812a9.563,9.563,0,0,1,2.344-5.772ZM82.961,21.7a9.6,9.6,0,0,1,5.772,2.342,9.515,9.515,0,0,1,2.33,5.65.88.88,0,0,0-.083.076c-.011.012-.02.024-.031.036A9.476,9.476,0,0,1,85.3,27.47,9.609,9.609,0,0,1,82.961,21.7ZM103.8,43.023a1.077,1.077,0,0,1,.061,2.149l-16.508.979a1.075,1.075,0,0,1-1.139-1.063A1.075,1.075,0,0,1,87.221,44l16.509-.979.065,0Zm.732,8.08a1.087,1.087,0,0,1-.67,1.859l-4.111.244a.862.862,0,0,0,.1,1.72l1.084-.064a3.281,3.281,0,0,1-3.1,2.221H92.345a3.277,3.277,0,0,1-2.781-1.547l6.379-.378a.862.862,0,0,0-.1-1.72l-8.492.5a1.076,1.076,0,0,1-.127-2.147l16.509-.979a1.066,1.066,0,0,1,.8.287Zm-15.46-1.145V47.774l12.039-.713c0,.006,0,.012,0,.018v2.167Zm0,0" transform="translate(-65.715)"/>
      <path id="Trazado_988829" data-name="Trazado 988829" d="M75.911,6.765a.862.862,0,0,0,1.233-1.2L73.773,2.11a.862.862,0,0,0-1.232,1.2Zm0,0" transform="translate(-63.991 -1.639)"/>
      <path id="Trazado_988830" data-name="Trazado 988830" d="M33.534,54.379l4.149,2.462a.862.862,0,0,0,.879-1.481L34.413,52.9a.862.862,0,0,0-.879,1.482Zm0,0" transform="translate(-29.319 -46.71)"/>
      <path id="Trazado_988831" data-name="Trazado 988831" d="M9.094,113.882l4.645,1.3a.862.862,0,0,0,.466-1.659l-4.645-1.3a.862.862,0,0,0-.466,1.659Zm0,0" transform="translate(-7.516 -99.302)"/>
      <path id="Trazado_988832" data-name="Trazado 988832" d="M5.656,177.784a.862.862,0,0,0,.01-1.723L.842,176a.862.862,0,0,0-.02,1.722l4.824.057h.01Zm0,0" transform="translate(0.001 -155.789)"/>
      <path id="Trazado_988833" data-name="Trazado 988833" d="M14.591,230.082a.861.861,0,0,0-1.048-.622l-4.674,1.193a.862.862,0,0,0,.426,1.669l4.674-1.193a.861.861,0,0,0,.621-1.048Zm0,0" transform="translate(-7.3 -203.082)"/>
      <path id="Trazado_988834" data-name="Trazado 988834" d="M38.446,279.2a.862.862,0,0,0-1.173-.329l-4.207,2.362a.862.862,0,0,0,.843,1.5l4.207-2.362a.861.861,0,0,0,.329-1.173Zm0,0" transform="translate(-28.892 -246.741)"/>
      <path id="Trazado_988835" data-name="Trazado 988835" d="M75.338,321.354l-3.452,3.371c-.781.762.406,2.011,1.2,1.232l3.451-3.37A.862.862,0,0,0,75.338,321.354Zm0,0" transform="translate(-63.404 -284.227)"/>
      <path id="Trazado_988836" data-name="Trazado 988836" d="M396.32,321.378a.862.862,0,0,0-1.232,1.2l3.37,3.452a.862.862,0,0,0,1.233-1.2Zm0,0" transform="translate(-349.493 -284.237)"/>
      <path id="Trazado_988837" data-name="Trazado 988837" d="M432.886,281.3l-4.149-2.462a.862.862,0,0,0-.879,1.481l4.149,2.462A.862.862,0,0,0,432.886,281.3Zm0,0" transform="translate(-378.354 -246.701)"/>
      <path id="Trazado_988838" data-name="Trazado 988838" d="M453.706,230.741l-4.645-1.3a.862.862,0,0,0-.466,1.659l4.645,1.3A.862.862,0,0,0,453.706,230.741Zm0,0" transform="translate(-396.538 -203.054)"/>
      <path id="Trazado_988839" data-name="Trazado 988839" d="M460.665,176.561l-4.824-.057a.862.862,0,0,0-.021,1.722l4.824.057A.862.862,0,0,0,460.665,176.561Zm0,0" transform="translate(-402.74 -156.231)"/>
      <path id="Trazado_988840" data-name="Trazado 988840" d="M447.8,115.428a.88.88,0,0,0,1.048.622l4.674-1.193a.862.862,0,0,0-.426-1.669l-4.675,1.193A.861.861,0,0,0,447.8,115.428Zm0,0" transform="translate(-396.345 -100.16)"/>
      <path id="Trazado_988841" data-name="Trazado 988841" d="M427.454,57.286a.88.88,0,0,0,1.173.329l4.206-2.362a.862.862,0,0,0-.843-1.5l-4.207,2.363A.862.862,0,0,0,427.454,57.286Zm0,0" transform="translate(-378.262 -47.474)"/>
      <path id="Trazado_988842" data-name="Trazado 988842" d="M395.759,7.639a.859.859,0,0,0,.6-.245l3.451-3.37a.862.862,0,0,0-1.2-1.233l-3.452,3.371a.868.868,0,0,0,.6,1.478Zm0,0" transform="translate(-349.548 -2.253)"/>
    </g>
  </g>
</svg>
