<svg id="lampara_1_" data-name="lampara (1)" xmlns="http://www.w3.org/2000/svg" width="37.303" height="37.303" viewBox="0 0 37.303 37.303">
  <g id="Grupo_1149716" data-name="Grupo 1149716" transform="translate(7.771 7.771)">
    <path id="Trazado_984135" data-name="Trazado 984135" d="M18.211,34.531H13.549a2.524,2.524,0,0,1-2.331-2.8V28.47A5.4,5.4,0,0,0,9.2,24.429a10.744,10.744,0,0,1-4.2-8.7A11.061,11.061,0,0,1,15.725,5,10.924,10.924,0,0,1,23.5,8.109,11.065,11.065,0,0,1,26.76,15.88a10.453,10.453,0,0,1-4.041,8.393,5.675,5.675,0,0,0-2.176,4.352V32.2a2.39,2.39,0,0,1-2.331,2.331ZM15.88,6.554a9.533,9.533,0,0,0-9.326,9.17,9.136,9.136,0,0,0,3.575,7.461,6.773,6.773,0,0,1,2.642,5.285v3.264c0,.311,0,1.243.777,1.243h4.663a.734.734,0,0,0,.777-.777V28.625a7.553,7.553,0,0,1,2.8-5.6,9.063,9.063,0,0,0,3.419-7.15,9.291,9.291,0,0,0-2.8-6.683A9.162,9.162,0,0,0,15.88,6.554Z" transform="translate(-5 -5)"/>
  </g>
  <g id="Grupo_1149717" data-name="Grupo 1149717" transform="translate(13.989 31.086)">
    <path id="Trazado_984136" data-name="Trazado 984136" d="M17.549,21.554H9.777a.777.777,0,1,1,0-1.554h7.771a.777.777,0,0,1,0,1.554Z" transform="translate(-9 -20)"/>
  </g>
  <g id="Grupo_1149718" data-name="Grupo 1149718" transform="translate(17.874)">
    <path id="Trazado_984137" data-name="Trazado 984137" d="M12.277,4.663a.734.734,0,0,1-.777-.777V.777a.777.777,0,1,1,1.554,0V3.886A.734.734,0,0,1,12.277,4.663Z" transform="translate(-11.5)"/>
  </g>
  <g id="Grupo_1149719" data-name="Grupo 1149719" transform="translate(28.21 5.362)">
    <path id="Trazado_984138" data-name="Trazado 984138" d="M19,7.1a.934.934,0,0,1-.622-.155.751.751,0,0,1,0-1.088l2.176-2.176a.769.769,0,0,1,1.088,1.088L19.471,6.947A1.566,1.566,0,0,1,19,7.1Z" transform="translate(-18.15 -3.45)"/>
  </g>
  <g id="Grupo_1149720" data-name="Grupo 1149720" transform="translate(32.64 17.874)">
    <path id="Trazado_984139" data-name="Trazado 984139" d="M24.886,13.054H21.777a.777.777,0,1,1,0-1.554h3.109a.777.777,0,1,1,0,1.554Z" transform="translate(-21 -11.5)"/>
  </g>
  <g id="Grupo_1149721" data-name="Grupo 1149721" transform="translate(28.21 28.366)">
    <path id="Trazado_984140" data-name="Trazado 984140" d="M21.181,21.9a.934.934,0,0,1-.622-.155l-2.176-2.176a.769.769,0,0,1,1.088-1.088l2.176,2.176a.751.751,0,0,1,0,1.088c0,.155-.155.155-.466.155Z" transform="translate(-18.15 -18.25)"/>
  </g>
  <g id="Grupo_1149722" data-name="Grupo 1149722" transform="translate(5.207 28.366)">
    <path id="Trazado_984141" data-name="Trazado 984141" d="M4.2,21.9a.934.934,0,0,1-.622-.155.751.751,0,0,1,0-1.088l2.176-2.176a.769.769,0,0,1,1.088,1.088L4.671,21.747A.571.571,0,0,1,4.2,21.9Z" transform="translate(-3.35 -18.25)"/>
  </g>
  <g id="Grupo_1149723" data-name="Grupo 1149723" transform="translate(0 17.874)">
    <path id="Trazado_984142" data-name="Trazado 984142" d="M3.886,13.054H.777a.777.777,0,1,1,0-1.554H3.886a.777.777,0,1,1,0,1.554Z" transform="translate(0 -11.5)"/>
  </g>
  <g id="Grupo_1149724" data-name="Grupo 1149724" transform="translate(5.207 5.207)">
    <path id="Trazado_984143" data-name="Trazado 984143" d="M6.381,7.158A.934.934,0,0,1,5.759,7L3.583,4.671A.769.769,0,0,1,4.671,3.583L6.847,5.759a.751.751,0,0,1,0,1.088c-.155.155-.311.311-.466.311Z" transform="translate(-3.35 -3.35)"/>
  </g>
  <g id="Grupo_1149725" data-name="Grupo 1149725" transform="translate(17.874 11.657)">
    <path id="Trazado_984144" data-name="Trazado 984144" d="M18.494,15.271a.734.734,0,0,1-.777-.777,5.507,5.507,0,0,0-5.44-5.44.734.734,0,0,1-.777-.777.734.734,0,0,1,.777-.777,6.965,6.965,0,0,1,6.994,6.994A.734.734,0,0,1,18.494,15.271Z" transform="translate(-11.5 -7.5)"/>
  </g>
</svg>
